<svg xmlns="http://www.w3.org/2000/svg" viewBox="0 0 1366 608"><defs><style>.cls-1{fill:#7652da;}.cls-2{fill:#7141dc;}</style></defs><title>bg-contact</title><g id="Capa_1" data-name="Capa 1"><rect class="cls-1" width="1366" height="608"/><path class="cls-2" d="M1187.63,96.13a36.58,36.58,0,0,1,7,3.11,3.61,3.61,0,0,0,1.79.48,3.58,3.58,0,0,0,1.8-6.68,43.45,43.45,0,0,0-8.32-3.72,3.58,3.58,0,1,0-2.24,6.81Zm0,0"/><path class="cls-2" d="M1211.93,134.5a73.55,73.55,0,0,1-1.85,16.23,3.59,3.59,0,1,0,7,1.58,81.83,81.83,0,0,0,2-17.81c0-12.52-3.06-23-9.08-31a3.59,3.59,0,1,0-5.74,4.3c5.07,6.77,7.65,15.75,7.65,26.69Zm0,0"/><path class="cls-2" d="M1160.17,189.22c-8.91-6.07-16.87-17.73-21.31-31.16a3.58,3.58,0,0,0-6.8,2.24c5,15.11,13.76,27.81,24.07,34.84a3.52,3.52,0,0,0,2,.63,3.59,3.59,0,0,0,2-6.55Zm0,0"/><path class="cls-2" d="M1285.32,130c-10.91-10.62-26.2-16.48-43-16.48a71,71,0,0,0-10.48.78A57.64,57.64,0,0,0,1216.51,88c-10.91-10.63-26.2-16.48-43-16.48s-32.14,5.85-43,16.48c-11.7,11.39-17.88,27.48-17.88,46.54A98.66,98.66,0,0,0,1130,189.9c9.45,13.48,21.11,22.15,33.56,25.17a11.15,11.15,0,0,0-1.31,5.27V228a3.58,3.58,0,0,0,3.58,3.59h3.85a21.91,21.91,0,0,1-1.47,5.34,31.73,31.73,0,0,0,0,22.91,24.6,24.6,0,0,1,0,17.87,28.63,28.63,0,0,0-2.14,11.46,3.59,3.59,0,0,0,7.17,0,21.61,21.61,0,0,1,1.68-8.94,31.73,31.73,0,0,0,0-22.91,24.6,24.6,0,0,1,0-17.87,28.15,28.15,0,0,0,2-7.86h4.23a3.59,3.59,0,0,0,3.59-3.59v-7.64a11.3,11.3,0,0,0-1.31-5.27,44.12,44.12,0,0,0,5.36-1.66c9.42,23.15,25.75,39.27,43.63,43.69a11.13,11.13,0,0,0-1.33,5.29V270a3.58,3.58,0,0,0,3.58,3.58h3.85A22,22,0,0,1,1237,279a28.53,28.53,0,0,0-2.14,11.45,3.59,3.59,0,0,0,7.17,0,21.43,21.43,0,0,1,1.69-8.94,28.19,28.19,0,0,0,2-7.86h4.24a3.58,3.58,0,0,0,3.58-3.58v-7.65a11.11,11.11,0,0,0-1.31-5.26c12.45-3,24.11-11.7,33.57-25.17a98.76,98.76,0,0,0,17.44-55.41c0-19.05-6.18-35.15-17.88-46.54Zm-149.48,55.78a91.39,91.39,0,0,1-16.14-51.29c0-17.08,5.43-31.39,15.71-41.4,9.57-9.32,23.08-14.45,38-14.45s28.48,5.13,38,14.44c10.28,10,15.71,24.33,15.71,41.41a91.4,91.4,0,0,1-16.15,51.29c-10.54,15-23.9,23.32-37.61,23.32s-27.07-8.28-37.62-23.32Zm41.68,34.55v4.06h-8.12v-4.06a4.06,4.06,0,1,1,8.12,0Zm68.81,42v4.06h-8.12v-4.06a4.06,4.06,0,1,1,8.12,0Zm33.56-34.55c-10.55,15-23.91,23.32-37.62,23.32-9.66,0-19.33-4.21-28-12.18-7.76-7.16-14.48-17.27-19.06-28.63a56.76,56.76,0,0,0,6.84-4.55c5.13,13.58,13.33,24.9,22.85,31.4a3.59,3.59,0,0,0,4-5.93c-8.77-6-16.63-17.38-21.1-30.57a78.25,78.25,0,0,0,9.06-10.8,98.66,98.66,0,0,0,17.45-55.4,80.11,80.11,0,0,0-1.06-13.17,62.72,62.72,0,0,1,8.94-.63c15,0,28.48,5.13,38,14.45,10.28,10,15.71,24.32,15.71,41.4a91.37,91.37,0,0,1-16.14,51.29Zm0,0"/><path class="cls-2" d="M1278.83,145.56a3.59,3.59,0,1,0-5.74,4.3c5.08,6.78,7.65,15.76,7.65,26.69a74.29,74.29,0,0,1-1.84,16.24,3.57,3.57,0,0,0,2.7,4.28,3.58,3.58,0,0,0,4.29-2.71,81.15,81.15,0,0,0,2-17.81c0-12.52-3.06-22.94-9.08-31Zm0,0"/><path class="cls-2" d="M1267,135.09a43.45,43.45,0,0,0-8.32-3.72,3.58,3.58,0,0,0-2.24,6.81,36.93,36.93,0,0,1,7,3.11,3.51,3.51,0,0,0,1.79.48,3.58,3.58,0,0,0,1.8-6.68Zm0,0"/><path class="cls-2" d="M448.63,285.13a36.58,36.58,0,0,1,7,3.11,3.61,3.61,0,0,0,1.79.48,3.58,3.58,0,0,0,1.8-6.68,43.45,43.45,0,0,0-8.32-3.72,3.58,3.58,0,1,0-2.24,6.81Zm0,0"/><path class="cls-2" d="M472.93,323.5a73.55,73.55,0,0,1-1.85,16.23,3.59,3.59,0,1,0,7,1.58,81.83,81.83,0,0,0,2-17.81c0-12.52-3.06-22.95-9.08-31a3.59,3.59,0,1,0-5.74,4.3c5.07,6.77,7.65,15.75,7.65,26.69Zm0,0"/><path class="cls-2" d="M421.17,378.22c-8.91-6.07-16.87-17.73-21.31-31.16a3.58,3.58,0,1,0-6.8,2.24c5,15.11,13.76,27.81,24.07,34.84a3.52,3.52,0,0,0,2,.63,3.59,3.59,0,0,0,2-6.55Zm0,0"/><path class="cls-2" d="M546.32,319c-10.91-10.62-26.2-16.48-43.05-16.48a71,71,0,0,0-10.48.78A57.64,57.64,0,0,0,477.51,277c-10.91-10.63-26.2-16.48-43.05-16.48s-32.14,5.85-43,16.48c-11.7,11.39-17.88,27.48-17.88,46.54A98.66,98.66,0,0,0,391,378.9c9.45,13.48,21.11,22.15,33.56,25.17a11.15,11.15,0,0,0-1.31,5.27V417a3.58,3.58,0,0,0,3.58,3.59h3.85a21.91,21.91,0,0,1-1.47,5.34,31.73,31.73,0,0,0,0,22.91,24.6,24.6,0,0,1,0,17.87,28.63,28.63,0,0,0-2.14,11.46,3.59,3.59,0,0,0,7.17,0,21.61,21.61,0,0,1,1.68-8.94,31.73,31.73,0,0,0,0-22.91,24.6,24.6,0,0,1,0-17.87,28.15,28.15,0,0,0,2-7.86h4.23a3.59,3.59,0,0,0,3.59-3.59v-7.64a11.3,11.3,0,0,0-1.31-5.27,44.12,44.12,0,0,0,5.36-1.66c9.42,23.15,25.75,39.27,43.63,43.69a11.13,11.13,0,0,0-1.33,5.29V459a3.58,3.58,0,0,0,3.58,3.58h3.85A22,22,0,0,1,498,468a28.53,28.53,0,0,0-2.14,11.45,3.59,3.59,0,0,0,7.17,0,21.43,21.43,0,0,1,1.69-8.94,28.19,28.19,0,0,0,2-7.86h4.24A3.58,3.58,0,0,0,514.5,459v-7.65a11.11,11.11,0,0,0-1.31-5.26c12.45-3,24.11-11.7,33.57-25.17a98.76,98.76,0,0,0,17.44-55.41c0-19.05-6.18-35.15-17.88-46.54ZM396.84,374.79A91.39,91.39,0,0,1,380.7,323.5c0-17.08,5.43-31.39,15.71-41.4,9.57-9.32,23.08-14.45,38-14.45s28.48,5.13,38.05,14.44c10.28,10,15.71,24.33,15.71,41.41a91.4,91.4,0,0,1-16.15,51.29c-10.54,15-23.9,23.32-37.61,23.32s-27.07-8.28-37.62-23.32Zm41.68,34.55v4.06H430.4v-4.06a4.06,4.06,0,1,1,8.12,0Zm68.81,42.05v4.06h-8.12v-4.06a4.06,4.06,0,0,1,8.12,0Zm33.56-34.55c-10.55,15-23.91,23.32-37.62,23.32-9.66,0-19.33-4.21-28-12.18-7.76-7.16-14.48-17.27-19.06-28.63a56.76,56.76,0,0,0,6.84-4.55c5.13,13.58,13.33,24.9,22.85,31.4a3.59,3.59,0,0,0,4-5.93c-8.77-6-16.63-17.38-21.1-30.57a78.25,78.25,0,0,0,9.06-10.8,98.66,98.66,0,0,0,17.45-55.4,80.11,80.11,0,0,0-1.06-13.17,62.72,62.72,0,0,1,8.94-.63c15,0,28.48,5.13,38.05,14.45,10.28,10,15.71,24.32,15.71,41.4a91.37,91.37,0,0,1-16.14,51.29Zm0,0"/><path class="cls-2" d="M539.83,334.56a3.59,3.59,0,1,0-5.74,4.3c5.08,6.78,7.65,15.76,7.65,26.69a74.29,74.29,0,0,1-1.84,16.24,3.57,3.57,0,0,0,2.7,4.28,3.58,3.58,0,0,0,4.29-2.71,81.15,81.15,0,0,0,2-17.81c0-12.52-3.06-22.94-9.08-31Zm0,0"/><path class="cls-2" d="M528,324.09a43.45,43.45,0,0,0-8.32-3.72,3.58,3.58,0,0,0-2.24,6.81,36.93,36.93,0,0,1,7,3.11,3.51,3.51,0,0,0,1.79.48,3.58,3.58,0,0,0,1.8-6.68Zm0,0"/><path class="cls-2" d="M92.63,122.13a36.58,36.58,0,0,1,7,3.11,3.61,3.61,0,0,0,1.79.48,3.58,3.58,0,0,0,1.8-6.68,43.45,43.45,0,0,0-8.32-3.72,3.58,3.58,0,1,0-2.24,6.81Zm0,0"/><path class="cls-2" d="M116.93,160.5a73.55,73.55,0,0,1-1.85,16.23,3.59,3.59,0,1,0,7,1.58,81.83,81.83,0,0,0,2-17.81c0-12.52-3.06-22.95-9.08-31a3.59,3.59,0,0,0-5.74,4.3c5.07,6.77,7.65,15.75,7.65,26.69Zm0,0"/><path class="cls-2" d="M65.17,215.22c-8.91-6.07-16.87-17.73-21.31-31.16a3.58,3.58,0,0,0-6.8,2.24c5,15.11,13.76,27.81,24.07,34.84a3.52,3.52,0,0,0,2,.63,3.59,3.59,0,0,0,2-6.55Zm0,0"/><path class="cls-2" d="M190.32,156c-10.91-10.62-26.2-16.48-43-16.48a71,71,0,0,0-10.48.78A57.64,57.64,0,0,0,121.51,114c-10.91-10.63-26.2-16.48-43.05-16.48s-32.14,5.85-43,16.48c-11.7,11.39-17.88,27.48-17.88,46.54A98.66,98.66,0,0,0,35,215.9c9.45,13.48,21.11,22.15,33.56,25.17a11.15,11.15,0,0,0-1.31,5.27V254a3.58,3.58,0,0,0,3.58,3.59h3.85a21.91,21.91,0,0,1-1.47,5.34,31.73,31.73,0,0,0,0,22.91,24.6,24.6,0,0,1,0,17.87,28.63,28.63,0,0,0-2.14,11.46,3.59,3.59,0,0,0,7.17,0,21.61,21.61,0,0,1,1.68-8.94,31.73,31.73,0,0,0,0-22.91,24.6,24.6,0,0,1,0-17.87,28.15,28.15,0,0,0,2-7.86H86.1A3.59,3.59,0,0,0,89.69,254v-7.64a11.3,11.3,0,0,0-1.31-5.27,44.12,44.12,0,0,0,5.36-1.66c9.42,23.15,25.75,39.27,43.63,43.69a11.13,11.13,0,0,0-1.33,5.29V296a3.58,3.58,0,0,0,3.58,3.58h3.85A22,22,0,0,1,142,305a28.53,28.53,0,0,0-2.14,11.45,3.59,3.59,0,0,0,7.17,0,21.43,21.43,0,0,1,1.69-8.94,28.19,28.19,0,0,0,2-7.86h4.24A3.58,3.58,0,0,0,158.5,296v-7.65a11.11,11.11,0,0,0-1.31-5.26c12.45-3,24.11-11.7,33.57-25.17a98.76,98.76,0,0,0,17.44-55.41c0-19.05-6.18-35.15-17.88-46.54ZM40.84,211.79A91.39,91.39,0,0,1,24.7,160.5c0-17.08,5.43-31.39,15.71-41.4,9.57-9.32,23.08-14.45,38.05-14.45s28.48,5.13,38.05,14.44c10.28,10,15.71,24.33,15.71,41.41a91.4,91.4,0,0,1-16.15,51.29c-10.54,15-23.9,23.32-37.61,23.32s-27.07-8.28-37.62-23.32Zm41.68,34.55v4.06H74.4v-4.06a4.06,4.06,0,1,1,8.12,0Zm68.81,42v4.06h-8.12v-4.06a4.06,4.06,0,0,1,8.12,0Zm33.56-34.55c-10.55,15-23.91,23.32-37.62,23.32-9.66,0-19.33-4.21-28-12.18-7.76-7.16-14.48-17.27-19.06-28.63a56.76,56.76,0,0,0,6.84-4.55c5.13,13.58,13.33,24.9,22.85,31.4a3.59,3.59,0,0,0,4-5.93c-8.77-6-16.63-17.38-21.1-30.57a78.25,78.25,0,0,0,9.06-10.8,98.66,98.66,0,0,0,17.45-55.4,80.11,80.11,0,0,0-1.06-13.17,62.72,62.72,0,0,1,8.94-.63c15,0,28.48,5.13,38,14.45,10.28,10,15.71,24.32,15.71,41.4a91.37,91.37,0,0,1-16.14,51.29Zm0,0"/><path class="cls-2" d="M183.83,171.56a3.59,3.59,0,0,0-5.74,4.3c5.08,6.78,7.65,15.76,7.65,26.69a74.29,74.29,0,0,1-1.84,16.24,3.57,3.57,0,0,0,2.7,4.28,3.58,3.58,0,0,0,4.29-2.71,81.15,81.15,0,0,0,2-17.81c0-12.52-3.06-22.94-9.08-31Zm0,0"/><path class="cls-2" d="M172,161.09a43.45,43.45,0,0,0-8.32-3.72,3.58,3.58,0,0,0-2.24,6.81,36.93,36.93,0,0,1,7,3.11,3.51,3.51,0,0,0,1.79.48,3.58,3.58,0,0,0,1.8-6.68Zm0,0"/></g></svg>