<svg xmlns="http://www.w3.org/2000/svg" viewBox="0 0 24 24"><defs><style>.cls-1{fill:#fff;}</style></defs><title>icon-calendar</title><g id="Capa_1" data-name="Capa 1"><path class="cls-1" d="M20.25,1.88H19V.94a.94.94,0,1,0-1.87,0v.94H12.89V.94A.94.94,0,1,0,11,.94v.94H6.8V.94a.94.94,0,1,0-1.88,0v.94H3.75A3.75,3.75,0,0,0,0,5.62V20.25A3.75,3.75,0,0,0,3.75,24h7.17a.94.94,0,1,0,0-1.87H3.75a1.89,1.89,0,0,1-1.88-1.88V5.62A1.88,1.88,0,0,1,3.75,3.75H4.92v.94a.94.94,0,0,0,1.88,0V3.75H11v.94a.94.94,0,0,0,1.87,0V3.75h4.27v.94a.94.94,0,0,0,1.87,0V3.75h1.22a1.88,1.88,0,0,1,1.88,1.87V11A.94.94,0,1,0,24,11V5.62a3.75,3.75,0,0,0-3.75-3.74Zm-.56,15.51h-.42v-1a.94.94,0,0,0-1.88,0v1.92a.94.94,0,0,0,.94.94h1.36a.94.94,0,0,0,0-1.88Zm2.44.94a3.8,3.8,0,1,0-3.8,3.8,3.8,3.8,0,0,0,3.8-3.8Zm1.87,0a5.67,5.67,0,1,1-5.67-5.67A5.67,5.67,0,0,1,24,18.33ZM9.94,17.06A.94.94,0,0,0,9,18H9a.94.94,0,1,0,1.87,0h0a.93.93,0,0,0-.93-.94Zm.93-3.14a.94.94,0,1,0-1.87,0H9a.94.94,0,1,0,1.87,0Zm0-4.08A.94.94,0,0,0,9,9.84H9a.94.94,0,1,0,1.87,0Zm-5,7.22a.94.94,0,0,0-.94.94h0A.94.94,0,0,0,6.8,18h0a.94.94,0,0,0-.94-.94Zm.94-3.14a.94.94,0,1,0-1.88,0h0a.94.94,0,1,0,1.88,0ZM19,9.84h0a.94.94,0,0,0-1.87,0h0a.94.94,0,1,0,1.87,0ZM15,9.84h0a.94.94,0,0,0-1.87,0h0a.94.94,0,1,0,1.87,0Zm-8.15,0a.94.94,0,0,1-1.88,0h0a.94.94,0,0,1,1.88,0Z"/></g></svg>