<svg xmlns="http://www.w3.org/2000/svg" viewBox="0 0 48 48"><defs><style>.cls-1{fill:#fff;}</style></defs><title>icon-twitter</title><g id="Capa_1" data-name="Capa 1"><path class="cls-1" d="M24,0A24,24,0,1,0,48,24,24,24,0,0,0,24,0ZM34.71,18.51c0,.23,0,.47,0,.72A15.71,15.71,0,0,1,10.54,32.46a11.38,11.38,0,0,0,1.31.08,11.14,11.14,0,0,0,6.87-2.37,5.53,5.53,0,0,1-5.16-3.84,5,5,0,0,0,1,.1,5.41,5.41,0,0,0,1.46-.19,5.52,5.52,0,0,1-4.43-5.41v-.08a5.32,5.32,0,0,0,2.5.69,5.51,5.51,0,0,1-2.46-4.59,5.58,5.58,0,0,1,.75-2.78,15.69,15.69,0,0,0,11.38,5.77,5.72,5.72,0,0,1-.14-1.26,5.53,5.53,0,0,1,9.56-3.78,10.74,10.74,0,0,0,3.51-1.34,5.54,5.54,0,0,1-2.43,3.06,10.87,10.87,0,0,0,3.17-.87,11.33,11.33,0,0,1-2.75,2.86Zm0,0"/></g></svg>