<svg xmlns="http://www.w3.org/2000/svg" xmlns:xlink="http://www.w3.org/1999/xlink" viewBox="0 0 24 24"><defs><style>.cls-1{fill:none;}.cls-2{clip-path:url(#clip-path);}.cls-3{fill:#fff;}</style><clipPath id="clip-path"><rect class="cls-1" width="24" height="24"/></clipPath></defs><title>icon-fest</title><g id="Capa_1" data-name="Capa 1"><g class="cls-2"><path class="cls-3" d="M3.33,17.92a5.25,5.25,0,0,1,.39,2.74,3.36,3.36,0,0,1-.42,1.18l-2,.82,2-4.74Zm6.73-9.51a.94.94,0,0,0-.1.1.45.45,0,0,0,0,.66.46.46,0,0,0,.66,0L10.79,9A28.66,28.66,0,0,1,13,11c.64.63,1.23,1.27,1.76,1.89l-.25.15a.46.46,0,0,0-.17.64.45.45,0,0,0,.4.23.53.53,0,0,0,.24-.06l.39-.22c.2.26.39.51.56.75a5.52,5.52,0,0,1,.94,1.71,5.52,5.52,0,0,1-1.71-.94,28.25,28.25,0,0,1-3.39-2.92A28.25,28.25,0,0,1,8.84,8.85,5.52,5.52,0,0,1,7.9,7.14a5.52,5.52,0,0,1,1.71.94l.45.33Zm4,7.12c.29.22.56.42.82.59a9.38,9.38,0,0,0,.82.51l-2.21.93a6.4,6.4,0,0,0,.57-2ZM5.22,13.4C6.68,16.17,6.79,18,6.6,19.07a3,3,0,0,1-.83,1.73l-1.24.52a6.12,6.12,0,0,0-.71-4.57l1.4-3.35Zm2,6.77a4.28,4.28,0,0,0,.25-.83c.37-1.92-.24-4.28-1.82-7l.5-1.21a7.8,7.8,0,0,1,1,1.6.47.47,0,0,0,.43.28.39.39,0,0,0,.18,0,.46.46,0,0,0,.25-.61,8.68,8.68,0,0,0-1.51-2.19l.78-1.84a9.38,9.38,0,0,0,.51.82c.13.2.29.42.45.64a8.78,8.78,0,0,1,1.25,6.58,9.32,9.32,0,0,1-1.31,3.42l-1,.42Zm2.4-1a11.75,11.75,0,0,0,.84-2.66,10.18,10.18,0,0,0-.08-4.31l.68.7c.7.7,1.41,1.35,2.09,1.92a4.69,4.69,0,0,1-1.3,3.41l-2.23.94Zm7.22-5c-.2-.29-.42-.6-.67-.92a12.54,12.54,0,0,1,2.67-.9.47.47,0,0,0-.19-.92,13.14,13.14,0,0,0-3.08,1.07c-.58-.69-1.24-1.41-1.95-2.12s-1.52-1.45-2.25-2.05a10.77,10.77,0,0,0,1.53-2.66A14,14,0,0,0,13.85.47a.47.47,0,1,0-.94,0A11.34,11.34,0,0,1,10.68,7.7c-.28-.21-.55-.41-.81-.58C8.48,6.18,7.65,6,7.19,6.41h0A.76.76,0,0,0,7,6.85L0,23.35a.44.44,0,0,0,.1.51A.47.47,0,0,0,.47,24a.39.39,0,0,0,.18,0h0L17.15,17h0a.66.66,0,0,0,.4-.19l0,0h0c.45-.46.23-1.29-.71-2.68Z"/></g><path class="cls-3" d="M8.48,13.53a.46.46,0,0,0-.62-.24.47.47,0,0,0-.25.6.49.49,0,0,0,.44.3.47.47,0,0,0,.44-.62s0,0,0,0Z"/><g class="cls-2"><path class="cls-3" d="M17.5,7.25a.51.51,0,0,0,.34.14.47.47,0,0,0,.33-.14,6.63,6.63,0,0,1,4-1.63.46.46,0,0,0,.43-.5.47.47,0,0,0-.5-.43,7.62,7.62,0,0,0-4.58,1.9.47.47,0,0,0,0,.66Z"/><path class="cls-3" d="M23.65,4.78h0a.48.48,0,0,0-.57.34.47.47,0,0,0,.35.57h0a.25.25,0,0,0,.12,0,.47.47,0,0,0,.12-.92Z"/></g><path class="cls-3" d="M3.45,3.92h.46v.47a.47.47,0,1,0,.94,0V3.92h.47a.47.47,0,0,0,0-.94H4.85V2.51a.47.47,0,0,0-.94,0V3H3.45a.47.47,0,1,0,0,.94Z"/><path class="cls-3" d="M14.41,8.47h.47v.47a.47.47,0,0,0,.94,0V8.47h.47a.47.47,0,0,0,0-.94h-.47V7.06a.47.47,0,1,0-.94,0v.47h-.47a.47.47,0,0,0,0,.94Z"/><path class="cls-3" d="M20.93,19.58h-.47v-.47a.47.47,0,0,0-.94,0v.47h-.47a.47.47,0,0,0,0,.93h.47V21a.47.47,0,0,0,.94,0v-.47h.47a.47.47,0,1,0,0-.93Z"/><path class="cls-3" d="M18.28.94a.47.47,0,0,1,.47.47.47.47,0,1,1-.94,0,.47.47,0,0,1,.47-.47Zm0,1.87a1.41,1.41,0,1,0-1.41-1.4,1.41,1.41,0,0,0,1.41,1.4Z"/><path class="cls-3" d="M21.21,10a.47.47,0,1,1,.47-.47.47.47,0,0,1-.47.47Zm0-1.87a1.41,1.41,0,1,0,1.41,1.4,1.41,1.41,0,0,0-1.41-1.4Z"/><path class="cls-3" d="M9.3,2.61a.47.47,0,1,1-.46.47.47.47,0,0,1,.46-.47Zm0,1.87a1.41,1.41,0,1,0-1.4-1.4,1.41,1.41,0,0,0,1.4,1.4Z"/><path class="cls-3" d="M21.06,13.78a.47.47,0,1,0-.47.47.47.47,0,0,0,.47-.47Z"/><path class="cls-3" d="M15.71,4.46A.47.47,0,1,0,15.24,4a.47.47,0,0,0,.47.47Z"/><path class="cls-3" d="M22,16.83a.47.47,0,0,0,0,.94.47.47,0,1,0,0-.94Z"/><path class="cls-3" d="M6.52,1.41A.47.47,0,1,0,6.06.94a.47.47,0,0,0,.46.47Z"/></g></svg>