<svg xmlns="http://www.w3.org/2000/svg" viewBox="0 0 48 48"><defs><style>.cls-1{fill:#fff;}</style></defs><title>icon-instagram</title><g id="Capa_1" data-name="Capa 1"><path class="cls-1" d="M24,28.8A4.79,4.79,0,1,0,19.19,24,4.8,4.8,0,0,0,24,28.8Zm0,0"/><path class="cls-1" d="M34.49,18.12V13.5H29.86l0,4.63Zm0,0"/><path class="cls-1" d="M24,0A24,24,0,1,0,48,24,24,24,0,0,0,24,0ZM37.65,21.2V32.38a5.29,5.29,0,0,1-5.28,5.27H15.62a5.28,5.28,0,0,1-5.27-5.27V15.63a5.29,5.29,0,0,1,5.27-5.28H32.37a5.29,5.29,0,0,1,5.28,5.28Zm0,0"/><path class="cls-1" d="M31.46,24a7.46,7.46,0,1,1-14.38-2.8H13V32.38A2.61,2.61,0,0,0,15.62,35H32.37A2.62,2.62,0,0,0,35,32.38V21.2H30.91a7.43,7.43,0,0,1,.55,2.8Zm0,0"/></g></svg>